<svg width="119" height="26" viewBox="0 0 119 26" fill="none" xmlns="http://www.w3.org/2000/svg">
<path d="M92.1553 12.8093C92.1553 10.3566 92.7236 8.15071 93.8602 6.19154C95.0118 4.23238 96.5671 2.71441 98.5263 1.63762C100.5 0.545873 102.691 0 105.099 0C107.761 0 110.154 0.672994 112.278 2.01898V0.583261H118.066V25.0802H112.278V23.667C110.154 25.0129 107.761 25.6859 105.099 25.6859C103.29 25.6859 101.585 25.3644 99.9845 24.7213C98.3992 24.0782 97.0308 23.1959 95.8792 22.0742C94.7276 20.9525 93.8153 19.5916 93.1424 17.9914C92.4843 16.3911 92.1553 14.6638 92.1553 12.8093ZM97.8982 12.8093C97.8982 15.0078 98.6011 16.78 100.007 18.126C101.413 19.457 103.11 20.1225 105.099 20.1225C107.088 20.1225 108.778 19.457 110.169 18.126C111.575 16.78 112.278 15.0078 112.278 12.8093C112.278 10.6408 111.575 8.891 110.169 7.55997C108.763 6.22893 107.073 5.56342 105.099 5.56342C103.11 5.56342 101.413 6.23641 100.007 7.5824C98.6011 8.91343 97.8982 10.6557 97.8982 12.8093Z" fill="black"/>
<path d="M64.2934 0.583261H71.0009L77.5738 14.2899L84.1915 0.583261H90.899L77.5738 26L64.2934 0.583261Z" fill="black"/>
<path d="M48.9042 25.0802V0.583261H62.2519V6.14668H54.8266V25.0802H48.9042Z" fill="black"/>
<path d="M18.7092 13.0785C18.7092 10.4912 19.3 8.19557 20.4814 6.19154C21.6779 4.17256 23.2482 2.63963 25.1924 1.59275C27.1366 0.530918 29.2603 0 31.5634 0C34.046 0 36.2445 0.568306 38.1587 1.70492C40.073 2.84153 41.5312 4.38942 42.5332 6.34858C43.5502 8.29278 44.0587 10.4912 44.0587 12.9439V15.2545H24.6764C25.1101 16.765 25.9252 17.9914 27.1216 18.9336C28.333 19.8758 29.8286 20.3469 31.6083 20.3469C32.8795 20.3469 34.0311 20.1225 35.063 19.6739C36.1099 19.2252 36.9025 18.6868 37.4409 18.0587L41.3443 21.8274C40.2375 23.0837 38.8392 24.0408 37.1493 24.6989C35.4742 25.3569 33.6273 25.6859 31.6083 25.6859C29.7987 25.6859 28.0863 25.3569 26.4711 24.6989C24.8709 24.0259 23.5024 23.1286 22.3658 22.0069C21.2442 20.8703 20.3543 19.5318 19.6963 17.9914C19.0382 16.436 18.7092 14.7984 18.7092 13.0785ZM24.7662 10.3417H38.0914C37.9269 8.95082 37.224 7.76934 35.9827 6.79724C34.7564 5.81018 33.2833 5.31665 31.5634 5.31665C29.9781 5.31665 28.5648 5.76532 27.3235 6.66264C26.0972 7.54501 25.2447 8.77135 24.7662 10.3417Z" fill="black"/>
<path d="M0 22.5004L3.2528 18.4176C3.64164 18.941 4.15013 19.3897 4.77826 19.7636C5.42134 20.1225 6.12424 20.302 6.88697 20.302C7.75438 20.302 8.44981 20.0627 8.97325 19.5841C9.51165 19.0906 9.78084 18.4999 9.78084 17.8119C9.78084 16.7501 9.06298 15.9126 7.62726 15.2994L5.78775 14.5142C2.19845 13.0785 0.403796 10.6557 0.403796 7.2459C0.403796 5.18205 1.15157 3.46218 2.64711 2.08628C4.15761 0.695427 6.02703 0 8.25539 0C9.57147 0 10.7305 0.246764 11.7325 0.740293C12.7495 1.21887 13.5197 1.76474 14.0431 2.37791L10.4763 6.19154C9.96779 5.54846 9.2574 5.22692 8.34512 5.22692C7.68709 5.22692 7.14121 5.42134 6.70751 5.81018C6.24389 6.22893 6.01208 6.75237 6.01208 7.3805C6.01208 8.32269 6.68507 9.07794 8.03106 9.64625L9.87058 10.4314C11.7849 11.239 13.2206 12.241 14.1777 13.4374C15.1349 14.6189 15.6135 16.0771 15.6135 17.8119C15.6135 18.8438 15.419 19.8309 15.0302 20.7731C14.6563 21.7153 14.1179 22.5528 13.415 23.2856C12.7271 24.0184 11.8372 24.6017 10.7455 25.0354C9.65372 25.4691 8.44233 25.6859 7.1113 25.6859C5.69054 25.6859 4.3595 25.3943 3.1182 24.811C1.8769 24.2278 0.837503 23.4576 0 22.5004Z" fill="black"/>
</svg>
